<?xml version="1.0" encoding="UTF-8"?>
<svg width="242px" height="236px" viewBox="0 0 242 236" version="1.1" xmlns="http://www.w3.org/2000/svg" xmlns:xlink="http://www.w3.org/1999/xlink">
    <!-- Generator: Sketch 54.1 (76490) - https://sketchapp.com -->
    <title>github_logo</title>
    <desc>Created with Sketch.</desc>
    <g id="Page-1" stroke="none" stroke-width="1" fill="none" fill-rule="evenodd">
        <g id="Android" transform="translate(-59.000000, -81.000000)" fill="#161514">
            <g id="github_logo" transform="translate(59.000000, 81.000000)">
                <path d="M120.776,0 C54.082,0 -7.10542736e-14,54.072 -7.10542736e-14,120.776 C-7.10542736e-14,174.138 34.606,219.41 82.594,235.38 C88.63,236.498 90.846,232.76 90.846,229.57 C90.846,226.69 90.734,217.176 90.682,207.084 C57.082,214.39 49.992,192.834 49.992,192.834 C44.498,178.874 36.582,175.162 36.582,175.162 C25.624,167.666 37.408,167.82 37.408,167.82 C49.536,168.672 55.922,180.266 55.922,180.266 C66.694,198.73 84.176,193.392 91.068,190.306 C92.152,182.5 95.282,177.172 98.736,174.156 C71.91,171.102 43.71,160.746 43.71,114.468 C43.71,101.282 48.428,90.508 56.154,82.05 C54.9,79.008 50.766,66.724 57.324,50.088 C57.324,50.088 67.466,46.842 90.546,62.468 C100.18,59.792 110.512,58.45 120.776,58.404 C131.04,58.45 141.38,59.792 151.032,62.468 C174.084,46.842 184.212,50.088 184.212,50.088 C190.786,66.724 186.65,79.008 185.396,82.05 C193.14,90.508 197.826,101.282 197.826,114.468 C197.826,160.856 169.572,171.07 142.678,174.06 C147.01,177.808 150.87,185.158 150.87,196.426 C150.87,212.586 150.73,225.592 150.73,229.57 C150.73,232.784 152.904,236.55 159.026,235.364 C206.988,219.376 241.55,174.12 241.55,120.776 C241.55,54.072 187.476,0 120.776,0" id="Fill-5"></path>
                <path d="M45.744,173.408 C45.478,174.008 44.534,174.188 43.674,173.776 C42.798,173.382 42.306,172.564 42.59,171.962 C42.85,171.344 43.796,171.172 44.67,171.586 C45.548,171.98 46.048,172.806 45.744,173.408" id="Fill-6"></path>
                <path d="M50.636,178.864 C50.06,179.398 48.934,179.15 48.17,178.306 C47.38,177.464 47.232,176.338 47.816,175.796 C48.41,175.262 49.502,175.512 50.294,176.354 C51.084,177.206 51.238,178.324 50.636,178.864" id="Fill-7"></path>
                <path d="M55.398,185.82 C54.658,186.334 53.448,185.852 52.7,184.778 C51.96,183.704 51.96,182.416 52.716,181.9 C53.466,181.384 54.658,181.848 55.416,182.914 C56.154,184.006 56.154,185.294 55.398,185.82" id="Fill-8"></path>
                <path d="M61.922,192.54 C61.26,193.27 59.85,193.074 58.818,192.078 C57.762,191.104 57.468,189.722 58.132,188.992 C58.802,188.26 60.22,188.466 61.26,189.454 C62.308,190.426 62.628,191.818 61.922,192.54" id="Fill-9"></path>
                <path d="M70.922,196.442 C70.63,197.388 69.272,197.818 67.904,197.416 C66.538,197.002 65.644,195.894 65.92,194.938 C66.204,193.986 67.568,193.538 68.946,193.968 C70.31,194.38 71.206,195.48 70.922,196.442" id="Fill-10"></path>
                <path d="M80.806,197.166 C80.84,198.162 79.68,198.988 78.244,199.006 C76.8,199.038 75.632,198.232 75.616,197.252 C75.616,196.246 76.75,195.428 78.194,195.404 C79.63,195.376 80.806,196.176 80.806,197.166" id="Fill-11"></path>
                <path d="M90.004,195.6 C90.176,196.572 89.178,197.57 87.752,197.836 C86.35,198.092 85.052,197.492 84.874,196.528 C84.7,195.532 85.716,194.534 87.116,194.276 C88.544,194.028 89.822,194.612 90.004,195.6" id="Fill-12"></path>
            </g>
        </g>
    </g>
</svg>